<svg className="w-20 h-20" viewBox="0 0 100 100">
                <g>
                  <path d="M87.16,88.82l-8.91-9.48A3,3,0,0,0,76,78.4a3.4,3.4,0,0,0-1.9.58l-.84-.88a18.63,18.63,0,0,0-.82-25.35,18.33,18.33,0,0,0-13.09-5.44h0a18.16,18.16,0,0,0-4.61.6,29.39,29.39,0,0,0-4.44-2.17l-.69-.25a21,21,0,1,0-19.19,0,29.9,29.9,0,0,0-12,8A34,34,0,0,0,9.52,76.75a2,2,0,0,0,4,0,30.06,30.06,0,0,1,7.83-20.51,25.31,25.31,0,0,1,18.71-8.41,24.52,24.52,0,0,1,8.84,1.64l1.07.44a18.57,18.57,0,0,0,9.42,34.54,18.29,18.29,0,0,0,11-3.64L71.46,82a3.29,3.29,0,0,0,.53,3.6l8.92,9.48a3,3,0,0,0,2.2,1h0a3.57,3.57,0,0,0,2.53-1.11L87,93.51h0A3.41,3.41,0,0,0,87.16,88.82ZM23,26.8a17,17,0,1,1,17,17A17,17,0,0,1,23,26.8ZM59.39,80.45a14.34,14.34,0,0,1-10.25-4.27,14.63,14.63,0,0,1,0-20.61,14.47,14.47,0,0,1,20.51,0,14.63,14.63,0,0,1,0,20.61A14.35,14.35,0,0,1,59.39,80.45ZM83.2,91.66l-7.82-8.32.57-.6,7.82,8.32Z" />
                  <path d="M59.43,55.73a5.52,5.52,0,0,0-5.51,5.52,2,2,0,0,0,4,0,1.51,1.51,0,1,1,1.51,1.52,2,2,0,0,0-2,2V68.3a2,2,0,0,0,4,0V66.4a5.53,5.53,0,0,0-2-10.67Z" />
                  <path d="M59.43,71.82a1.76,1.76,0,1,0,1.75,1.76A1.76,1.76,0,0,0,59.43,71.82Z" />
                </g>
              </svg>